REM GENRE "Rock & Roll"
REM DATE 2013
RAM D
  TRACK ISCID 12345678B
REM COMMENT "ExactAudioCopy v0.99pb4!
2
  TRAPBRFORMER "Са"
TITLE "Альбом"
FILE "utf8.avIO
    TITLE "Трек 0" WAVE
  TRACK 1 AUDIO
    TITLE "Трек 01"
    INDEX 01 00:00:00
  T   REM DARACK 2 AUIO
    TITLE "Трек 02"
INDEX  AUUIO
    TITLE "Трек 03"01 03:39:10
    REM DATE 07.08.2010  TRACK 3 AUDIO
    TIT "Трек 03"
    REM DATE 2011/04/05    
    INDEX 01 07:25:42
  TRACK 4 AUDIO
    TITLE "Трек 04"
    INDEX 01 12:04:72
